<svg id="icons" enable-background="new 0 0 64 64" height="512" viewBox="0 0 64 64" width="512" xmlns="http://www.w3.org/2000/svg"><g><g><g><path d="m63.002 60.016h-62v-22.02l1 1 2-2 2 2 2-2 2 2 2-2 2 2 2-2 2 2 2-2 2 2 2-2 2 2 2-2 2 2 2-2 2 2 2-2 2 2 2-2 2 2 2-2 2 2 2-2 2 2 2-2 2 2 2-2 2 2 2-2 2 2 1-1z" fill="#4a89dc"/></g><g><path d="m47.998 6.984c-2.201 0-4 1.789-4 4h.01v3 23.01.01l-.01-.01-2 2-1-1v-6-3-6.01-3-6-3c0-3.861 3.139-7 7-7 3.869 0 7.01 3.139 7.01 7h-3.01c0-2.211-1.791-4-4-4z" fill="#656d78"/></g><g><path d="m22.998 28.994h18v3h-18z" fill="#545c66"/></g><g><path d="m22.998 19.984h18v3h-18z" fill="#545c66"/></g><g><path d="m26.998 3.984c3.869 0 7.01 3.139 7.01 7h-3.01c0-2.211-1.791-4-4-4-2.201 0-4 1.789-4 4v3 6 3 6.01 3 6l-1 1-2-2v-23.01-3c0-3.861 3.139-7 7-7z" fill="#656d78"/></g><g><g><path d="m30.998 10.984h-8v3h18v-3h-6.99z" fill="#f5f7fa"/></g><g><path d="m55.008 10.984h-3.01-7.99v3h18.99v-3z" fill="#f5f7fa"/></g><g><path d="m.998 10.984h19v3h-19z" fill="#f5f7fa"/></g></g><g><g><path d="m44.008 13.984v23.01.01l1.99 1.99 2-2 2 2h.02l1.99-1.99 1.99 1.99 2-2 2 2 2-2 2 2 1-1v-24.01z" fill="#e6e9ed"/></g><g><path d="m22.998 37.994 1-1 2 2 2-2 2 2 2-2 2 2 2-2 2 2 2-2 1 1v-6h-18z" fill="#e6e9ed"/></g><g><path d="m22.998 22.984h18v6.01h-18z" fill="#e6e9ed"/></g><g><path d="m22.998 13.984h18v6h-18z" fill="#e6e9ed"/></g><g><path d="m.998 37.994 1 1 2-2 2 2 2-2 2 2 2-2 2 2 2-2 2 2 2-2v-23.01h-19z" fill="#e6e9ed"/></g></g></g><g><g><g><g><path d="m62 39.996c-.256 0-.512-.098-.707-.293-.391-.391-.391-1.023 0-1.414l1-1c.391-.391 1.023-.391 1.414 0s.391 1.023 0 1.414l-1 1c-.195.195-.451.293-.707.293z" fill="#5d9cec"/></g><g><path d="m62 39.996c-.256 0-.512-.098-.707-.293l-2-2.001c-.391-.391-.391-1.023 0-1.414s1.023-.391 1.414 0l2 2.001c.391.391.391 1.023 0 1.414-.195.195-.451.293-.707.293z" fill="#5d9cec"/></g><g><path d="m58 39.996c-.256 0-.512-.098-.707-.293-.391-.391-.391-1.023 0-1.414l2-2.001c.391-.391 1.023-.391 1.414 0s.391 1.023 0 1.414l-2 2.001c-.195.195-.451.293-.707.293z" fill="#5d9cec"/></g><g><path d="m58 39.996c-.256 0-.512-.098-.707-.293l-2-2.001c-.391-.391-.391-1.023 0-1.414s1.023-.391 1.414 0l2 2.001c.391.391.391 1.023 0 1.414-.195.195-.451.293-.707.293z" fill="#5d9cec"/></g><g><path d="m54 39.996c-.256 0-.512-.098-.707-.293-.391-.391-.391-1.023 0-1.414l2-2.001c.391-.391 1.023-.391 1.414 0s.391 1.023 0 1.414l-2 2.001c-.195.195-.451.293-.707.293z" fill="#5d9cec"/></g><g><path d="m54 39.996c-.256 0-.512-.098-.707-.293l-2-2.001c-.391-.391-.391-1.023 0-1.414s1.023-.391 1.414 0l2 2.001c.391.391.391 1.023 0 1.414-.195.195-.451.293-.707.293z" fill="#5d9cec"/></g><g><path d="m50 39.996c-.256 0-.512-.098-.707-.293l-2-2.001c-.391-.391-.391-1.023 0-1.414s1.023-.391 1.414 0l2 2.001c.391.391.391 1.023 0 1.414-.195.195-.451.293-.707.293z" fill="#5d9cec"/></g><g><path d="m46 39.996c-.256 0-.512-.098-.707-.293-.391-.391-.391-1.023 0-1.414l2-2.001c.391-.391 1.023-.391 1.414 0s.391 1.023 0 1.414l-2 2.001c-.195.195-.451.293-.707.293z" fill="#5d9cec"/></g><g><path d="m50.016 39.996c-.256 0-.512-.098-.707-.293-.391-.391-.391-1.023 0-1.414l2-2.001c.391-.391 1.023-.391 1.414 0s.391 1.023 0 1.414l-2 2.001c-.196.195-.452.293-.707.293z" fill="#5d9cec"/></g><g><path d="m46 39.996c-.256 0-.512-.098-.707-.293l-2-2.001c-.391-.391-.391-1.023 0-1.414s1.023-.391 1.414 0l2 2.001c.391.391.391 1.023 0 1.414-.195.195-.451.293-.707.293z" fill="#5d9cec"/></g><g><path d="m42 39.996c-.256 0-.512-.098-.707-.293-.391-.391-.391-1.023 0-1.414l2-2.001c.391-.391 1.023-.391 1.414 0s.391 1.023 0 1.414l-2 2.001c-.195.195-.451.293-.707.293z" fill="#5d9cec"/></g><g><path d="m42 39.996c-.256 0-.512-.098-.707-.293l-2-2.001c-.391-.391-.391-1.023 0-1.414s1.023-.391 1.414 0l2 2.001c.391.391.391 1.023 0 1.414-.195.195-.451.293-.707.293z" fill="#5d9cec"/></g><g><path d="m38 39.996c-.256 0-.512-.098-.707-.293-.391-.391-.391-1.023 0-1.414l2-2.001c.391-.391 1.023-.391 1.414 0s.391 1.023 0 1.414l-2 2.001c-.195.195-.451.293-.707.293z" fill="#5d9cec"/></g><g><path d="m38 39.996c-.256 0-.512-.098-.707-.293l-2-2.001c-.391-.391-.391-1.023 0-1.414s1.023-.391 1.414 0l2 2.001c.391.391.391 1.023 0 1.414-.195.195-.451.293-.707.293z" fill="#5d9cec"/></g><g><path d="m34 39.996c-.256 0-.512-.098-.707-.293-.391-.391-.391-1.023 0-1.414l2-2.001c.391-.391 1.023-.391 1.414 0s.391 1.023 0 1.414l-2 2.001c-.195.195-.451.293-.707.293z" fill="#5d9cec"/></g><g><path d="m34 39.996c-.256 0-.512-.098-.707-.293l-2-2.001c-.391-.391-.391-1.023 0-1.414s1.023-.391 1.414 0l2 2.001c.391.391.391 1.023 0 1.414-.195.195-.451.293-.707.293z" fill="#5d9cec"/></g><g><path d="m30 39.996c-.256 0-.512-.098-.707-.293-.391-.391-.391-1.023 0-1.414l2-2.001c.391-.391 1.023-.391 1.414 0s.391 1.023 0 1.414l-2 2.001c-.195.195-.451.293-.707.293z" fill="#5d9cec"/></g><g><path d="m30 39.996c-.256 0-.512-.098-.707-.293l-2-2.001c-.391-.391-.391-1.023 0-1.414s1.023-.391 1.414 0l2 2.001c.391.391.391 1.023 0 1.414-.195.195-.451.293-.707.293z" fill="#5d9cec"/></g><g><path d="m26 39.996c-.256 0-.512-.098-.707-.293-.391-.391-.391-1.023 0-1.414l2-2.001c.391-.391 1.023-.391 1.414 0s.391 1.023 0 1.414l-2 2.001c-.195.195-.451.293-.707.293z" fill="#5d9cec"/></g><g><path d="m26 39.996c-.256 0-.512-.098-.707-.293l-2-2.001c-.391-.391-.391-1.023 0-1.414s1.023-.391 1.414 0l2 2.001c.391.391.391 1.023 0 1.414-.195.195-.451.293-.707.293z" fill="#5d9cec"/></g><g><path d="m22 39.996c-.256 0-.512-.098-.707-.293-.391-.391-.391-1.023 0-1.414l2-2.001c.391-.391 1.023-.391 1.414 0s.391 1.023 0 1.414l-2 2.001c-.195.195-.451.293-.707.293z" fill="#5d9cec"/></g><g><path d="m22 39.996c-.256 0-.512-.098-.707-.293l-2-2.001c-.391-.391-.391-1.023 0-1.414s1.023-.391 1.414 0l2 2.001c.391.391.391 1.023 0 1.414-.195.195-.451.293-.707.293z" fill="#5d9cec"/></g><g><path d="m18 39.996c-.256 0-.512-.098-.707-.293-.391-.391-.391-1.023 0-1.414l2-2.001c.391-.391 1.023-.391 1.414 0s.391 1.023 0 1.414l-2 2.001c-.195.195-.451.293-.707.293z" fill="#5d9cec"/></g><g><path d="m18 39.996c-.256 0-.512-.098-.707-.293l-2-2.001c-.391-.391-.391-1.023 0-1.414s1.023-.391 1.414 0l2 2.001c.391.391.391 1.023 0 1.414-.195.195-.451.293-.707.293z" fill="#5d9cec"/></g><g><path d="m14 39.996c-.256 0-.512-.098-.707-.293-.391-.391-.391-1.023 0-1.414l2-2.001c.391-.391 1.023-.391 1.414 0s.391 1.023 0 1.414l-2 2.001c-.195.195-.451.293-.707.293z" fill="#5d9cec"/></g><g><path d="m14 39.996c-.256 0-.512-.098-.707-.293l-2-2.001c-.391-.391-.391-1.023 0-1.414s1.023-.391 1.414 0l2 2.001c.391.391.391 1.023 0 1.414-.195.195-.451.293-.707.293z" fill="#5d9cec"/></g><g><path d="m10 39.996c-.256 0-.512-.098-.707-.293-.391-.391-.391-1.023 0-1.414l2-2.001c.391-.391 1.023-.391 1.414 0s.391 1.023 0 1.414l-2 2.001c-.195.195-.451.293-.707.293z" fill="#5d9cec"/></g><g><path d="m10 39.996c-.256 0-.512-.098-.707-.293l-2-2.001c-.391-.391-.391-1.023 0-1.414s1.023-.391 1.414 0l2 2.001c.391.391.391 1.023 0 1.414-.195.195-.451.293-.707.293z" fill="#5d9cec"/></g><g><path d="m6 39.996c-.256 0-.512-.098-.707-.293-.391-.391-.391-1.023 0-1.414l2-2.001c.391-.391 1.023-.391 1.414 0s.391 1.023 0 1.414l-2 2.001c-.195.195-.451.293-.707.293z" fill="#5d9cec"/></g><g><path d="m6 39.996c-.256 0-.512-.098-.707-.293l-2-2.001c-.391-.391-.391-1.023 0-1.414s1.023-.391 1.414 0l2 2.001c.391.391.391 1.023 0 1.414-.195.195-.451.293-.707.293z" fill="#5d9cec"/></g><g><path d="m2 39.996c-.256 0-.512-.098-.707-.293-.391-.391-.391-1.023 0-1.414l2-2.001c.391-.391 1.023-.391 1.414 0s.391 1.023 0 1.414l-2 2.001c-.195.195-.451.293-.707.293z" fill="#5d9cec"/></g><g><path d="m2 39.996c-.256 0-.512-.098-.707-.293l-1-1c-.391-.391-.391-1.023 0-1.414s1.023-.391 1.414 0l1 1c.391.391.391 1.023 0 1.414-.195.195-.451.293-.707.293z" fill="#5d9cec"/></g></g><g><g><g><path d="m32 46.995c-.256 0-.512-.098-.707-.293l-2-2c-.391-.391-.391-1.023 0-1.414s1.023-.391 1.414 0l2 2c.391.391.391 1.023 0 1.414-.195.195-.451.293-.707.293z" fill="#5d9cec"/></g><g><path d="m28 46.995c-.256 0-.512-.098-.707-.293-.391-.391-.391-1.023 0-1.414l2-2c.391-.391 1.023-.391 1.414 0s.391 1.023 0 1.414l-2 2c-.195.195-.451.293-.707.293z" fill="#5d9cec"/></g><g><path d="m28 46.995c-.256 0-.512-.098-.707-.293l-2-2c-.391-.391-.391-1.023 0-1.414s1.023-.391 1.414 0l2 2c.391.391.391 1.023 0 1.414-.195.195-.451.293-.707.293z" fill="#5d9cec"/></g><g><path d="m24 46.995c-.256 0-.512-.098-.707-.293-.391-.391-.391-1.023 0-1.414l2-2c.391-.391 1.023-.391 1.414 0s.391 1.023 0 1.414l-2 2c-.195.195-.451.293-.707.293z" fill="#5d9cec"/></g><g><path d="m24 46.995c-.256 0-.512-.098-.707-.293l-2-2c-.391-.391-.391-1.023 0-1.414s1.023-.391 1.414 0l2 2c.391.391.391 1.023 0 1.414-.195.195-.451.293-.707.293z" fill="#5d9cec"/></g><g><path d="m20 46.995c-.256 0-.512-.098-.707-.293-.391-.391-.391-1.023 0-1.414l2-2c.391-.391 1.023-.391 1.414 0s.391 1.023 0 1.414l-2 2c-.195.195-.451.293-.707.293z" fill="#5d9cec"/></g><g><path d="m20 46.995c-.256 0-.512-.098-.707-.293l-2-2c-.391-.391-.391-1.023 0-1.414s1.023-.391 1.414 0l2 2c.391.391.391 1.023 0 1.414-.195.195-.451.293-.707.293z" fill="#5d9cec"/></g><g><path d="m16 46.995c-.256 0-.512-.098-.707-.293-.391-.391-.391-1.023 0-1.414l2-2c.391-.391 1.023-.391 1.414 0s.391 1.023 0 1.414l-2 2c-.195.195-.451.293-.707.293z" fill="#5d9cec"/></g><g><path d="m16 46.995c-.256 0-.512-.098-.707-.293l-2-2c-.391-.391-.391-1.023 0-1.414s1.023-.391 1.414 0l2 2c.391.391.391 1.023 0 1.414-.195.195-.451.293-.707.293z" fill="#5d9cec"/></g><g><path d="m12 46.995c-.256 0-.512-.098-.707-.293-.391-.391-.391-1.023 0-1.414l2-2c.391-.391 1.023-.391 1.414 0s.391 1.023 0 1.414l-2 2c-.195.195-.451.293-.707.293z" fill="#5d9cec"/></g></g><g><g><path d="m52 50.993c-.256 0-.512-.098-.707-.293l-2-2c-.391-.391-.391-1.023 0-1.414s1.023-.391 1.414 0l2 2c.391.391.391 1.023 0 1.414-.195.196-.451.293-.707.293z" fill="#5d9cec"/></g><g><path d="m48 50.993c-.256 0-.512-.098-.707-.293-.391-.391-.391-1.023 0-1.414l2-2c.391-.391 1.023-.391 1.414 0s.391 1.023 0 1.414l-2 2c-.195.196-.451.293-.707.293z" fill="#5d9cec"/></g><g><path d="m48 50.993c-.256 0-.512-.098-.707-.293l-2-2c-.391-.391-.391-1.023 0-1.414s1.023-.391 1.414 0l2 2c.391.391.391 1.023 0 1.414-.195.196-.451.293-.707.293z" fill="#5d9cec"/></g><g><path d="m44 50.993c-.256 0-.512-.098-.707-.293-.391-.391-.391-1.023 0-1.414l2-2c.391-.391 1.023-.391 1.414 0s.391 1.023 0 1.414l-2 2c-.195.196-.451.293-.707.293z" fill="#5d9cec"/></g><g><path d="m44 50.993c-.256 0-.512-.098-.707-.293l-2-2c-.391-.391-.391-1.023 0-1.414s1.023-.391 1.414 0l2 2c.391.391.391 1.023 0 1.414-.195.196-.451.293-.707.293z" fill="#5d9cec"/></g><g><path d="m40 50.993c-.256 0-.512-.098-.707-.293-.391-.391-.391-1.023 0-1.414l2-2c.391-.391 1.023-.391 1.414 0s.391 1.023 0 1.414l-2 2c-.195.196-.451.293-.707.293z" fill="#5d9cec"/></g></g></g></g></g></g></svg>